<svg width="60" height="60" fill="none" xmlns="http://www.w3.org/2000/svg"><path d="M58.453 49.547a5.292 5.292 0 01-3.726 1.547H5.273a5.292 5.292 0 01-3.726-1.547l.21-4.149 15.727-15.61 3.727.212 1.687-1.688h14.696L38.789 30h4.605l14.567 14.45.492 5.097z" fill="#B7E0F6"/><path d="M58.453 49.547a5.292 5.292 0 01-3.726 1.547H30V28.313h7.594L38.789 30h4.605l14.567 14.45.492 5.097zM20.987 26.104L5.218 10.453H1.546A5.257 5.257 0 000 14.18v31.64c0 1.454.591 2.773 1.546 3.727L21.211 30l-.224-3.896z" fill="#A4D9F5"/><path d="M58.454 10.453h-3.727L39.342 25.72 38.79 30l19.665 19.547A5.256 5.256 0 0060 45.82V14.18a5.257 5.257 0 00-1.546-3.727z" fill="#81C8EE"/><path d="M58.453 10.453l-23.496 23.38A7.007 7.007 0 0130 35.905a7.006 7.006 0 01-4.957-2.074L1.547 10.453a5.292 5.292 0 013.726-1.547h49.454c1.44 0 2.777.598 3.726 1.547z" fill="#FEDB41"/><path d="M34.957 33.832A7.007 7.007 0 0130 35.906v-27h24.727c1.44 0 2.777.598 3.726 1.547l-23.496 23.38z" fill="#FCBF29"/></svg>