<svg width="60" height="60" fill="none" xmlns="http://www.w3.org/2000/svg"><g clip-path="url(#clip0)"><path d="M57.087 41.242l-6.02-6.02a9.376 9.376 0 00-6.673-2.764c-2.521 0-4.891.982-6.674 2.764l-2.661 2.662-12.825-12.826 3.315-3.316c3.319-3.318 3.319-8.72 0-12.038l-7.328-7.328A8.457 8.457 0 0012.2-.117a8.454 8.454 0 00-6.018 2.493l-.655.654A17.954 17.954 0 00.234 15.81c0 4.829 1.88 9.367 5.294 12.781L31.526 54.59a17.954 17.954 0 0012.78 5.294c4.828 0 9.367-1.88 12.78-5.294a9.375 9.375 0 002.765-6.673c0-2.521-.982-4.892-2.764-6.674z" fill="#2386E8"/><path d="M18.325 41.388l10.12-10.119-6.211-6.21 3.315-3.317c3.319-3.318 3.319-8.72 0-12.038l-7.328-7.328A8.457 8.457 0 0012.2-.117a8.454 8.454 0 00-6.018 2.493l-.655.654A17.954 17.954 0 00.234 15.81c0 4.829 1.88 9.367 5.294 12.781l12.797 12.797z" fill="#48B1FF"/><path d="M44.463 25.391c-.988 0-1.788-.8-1.788-1.788a6.826 6.826 0 00-6.819-6.819 1.789 1.789 0 010-3.576c5.732 0 10.395 4.663 10.395 10.395 0 .988-.8 1.788-1.788 1.788z" fill="#8BC8E8"/><path d="M35.856 16.785c1.945 0 3.7.819 4.944 2.13l2.53-2.53a10.366 10.366 0 00-7.474-3.177 1.789 1.789 0 000 3.577z" fill="#BAE5E5"/><path d="M55.274 24.387c-.987 0-1.788-.801-1.788-1.789 0-8.556-6.961-15.517-15.518-15.517a1.789 1.789 0 010-3.577c10.529 0 19.095 8.566 19.095 19.094 0 .988-.801 1.789-1.789 1.789z" fill="#8BC8E8"/><path d="M37.968 7.08c4.062 0 7.763 1.57 10.532 4.133l2.53-2.529a19.026 19.026 0 00-13.062-5.18 1.789 1.789 0 000 3.577z" fill="#BAE5E5"/><path d="M4.325 4.357L23.63 23.66l1.976-1.976.015-.015a8.462 8.462 0 002.422-5.995 8.459 8.459 0 00-2.494-5.971L18.22 2.377A8.455 8.455 0 0012.2-.117a8.458 8.458 0 00-6.018 2.492l-.654.654-1.204 1.328z" fill="#CDF5FF"/><path d="M57.089 54.586a9.369 9.369 0 002.761-6.67 9.375 9.375 0 00-2.764-6.673l-6.02-6.021c-3.68-3.678-9.666-3.678-13.346 0l-1.264 1.265L55.748 55.78l1.34-1.193z" fill="#ABDDFF"/><path d="M25.606 21.685l.015-.015a8.462 8.462 0 002.422-5.995 8.459 8.459 0 00-2.494-5.971L18.22 2.377A8.455 8.455 0 0012.2-.117a8.458 8.458 0 00-6.018 2.492l-.654.654-1.204 1.328L23.63 23.66l1.976-1.976z" fill="#CDF5FF"/></g><defs><clipPath id="clip0"><path fill="#fff" d="M0 0h60v60H0z"/></clipPath></defs></svg>